<mxfile host="app.diagrams.net" modified="2024-05-17T08:07:22.813Z" agent="Mozilla/5.0 (Windows NT 10.0; Win64; x64) AppleWebKit/537.36 (KHTML, like Gecko) Chrome/124.0.0.0 Safari/537.36 Edg/124.0.0.0" etag="7z1dxBuCfj-AMuXTtIqf" version="24.2.0" type="device">
  <diagram name="Страница — 1" id="l_MxAPewWIwfqHLS3kef">
    <mxGraphModel dx="3008" dy="1218" grid="1" gridSize="10" guides="1" tooltips="1" connect="1" arrows="1" fold="1" page="1" pageScale="1" pageWidth="827" pageHeight="1169" math="0" shadow="0">
      <root>
        <mxCell id="0" />
        <mxCell id="1" parent="0" />
        <mxCell id="a9Gmo1TxmLENQr1MWLQ0-34" value="Ассоциация" style="text;html=1;align=center;verticalAlign=middle;whiteSpace=wrap;rounded=0;rotation=0;" vertex="1" parent="1">
          <mxGeometry x="1010" y="1025" width="60" height="80" as="geometry" />
        </mxCell>
        <mxCell id="a9Gmo1TxmLENQr1MWLQ0-35" value="&lt;table border=&quot;1&quot; width=&quot;100%&quot; height=&quot;100%&quot; cellpadding=&quot;4&quot; style=&quot;width:100%;height:100%;border-collapse:collapse;&quot;&gt;&lt;tbody&gt;&lt;tr&gt;&lt;th align=&quot;center&quot;&gt;Пользователь&lt;/th&gt;&lt;/tr&gt;&lt;tr&gt;&lt;td align=&quot;center&quot;&gt;ID&lt;br&gt;Логин&lt;br&gt;Пароль&lt;br&gt;Право администратора&lt;/td&gt;&lt;/tr&gt;&lt;tr&gt;&lt;td align=&quot;center&quot;&gt;Зарегистрироваться()&lt;br&gt;Изменить данные()&lt;br&gt;Удалить данные()&lt;br&gt;Кредитный рейтинг()&lt;/td&gt;&lt;/tr&gt;&lt;/tbody&gt;&lt;/table&gt;" style="text;html=1;whiteSpace=wrap;strokeColor=none;fillColor=none;overflow=fill;" vertex="1" parent="1">
          <mxGeometry x="1210" y="850" width="160" height="160" as="geometry" />
        </mxCell>
        <mxCell id="a9Gmo1TxmLENQr1MWLQ0-36" value="&lt;table border=&quot;1&quot; width=&quot;100%&quot; height=&quot;100%&quot; cellpadding=&quot;4&quot; style=&quot;width:100%;height:100%;border-collapse:collapse;&quot;&gt;&lt;tbody&gt;&lt;tr&gt;&lt;th align=&quot;center&quot;&gt;Просмотр каталога&lt;/th&gt;&lt;/tr&gt;&lt;tr&gt;&lt;td align=&quot;center&quot;&gt;ID&lt;br&gt;Оплачен&lt;br&gt;Заказчик&lt;br&gt;&lt;br&gt;&lt;/td&gt;&lt;/tr&gt;&lt;tr&gt;&lt;td align=&quot;center&quot;&gt;Просмотреть()&lt;br&gt;Выполнить()&lt;br&gt;&lt;/td&gt;&lt;/tr&gt;&lt;/tbody&gt;&lt;/table&gt;" style="text;html=1;whiteSpace=wrap;strokeColor=none;fillColor=none;overflow=fill;" vertex="1" parent="1">
          <mxGeometry x="920" y="860" width="150" height="170" as="geometry" />
        </mxCell>
        <mxCell id="a9Gmo1TxmLENQr1MWLQ0-37" style="edgeStyle=orthogonalEdgeStyle;rounded=0;orthogonalLoop=1;jettySize=auto;html=1;entryX=-0.003;entryY=0.589;entryDx=0;entryDy=0;entryPerimeter=0;" edge="1" parent="1" source="a9Gmo1TxmLENQr1MWLQ0-36" target="a9Gmo1TxmLENQr1MWLQ0-35">
          <mxGeometry relative="1" as="geometry" />
        </mxCell>
        <mxCell id="a9Gmo1TxmLENQr1MWLQ0-38" value="&lt;table border=&quot;1&quot; width=&quot;100%&quot; height=&quot;100%&quot; cellpadding=&quot;4&quot; style=&quot;width:100%;height:100%;border-collapse:collapse;&quot;&gt;&lt;tbody&gt;&lt;tr&gt;&lt;th align=&quot;center&quot;&gt;Постоянный клиент&lt;/th&gt;&lt;/tr&gt;&lt;tr&gt;&lt;td align=&quot;center&quot;&gt;Номер контракта&lt;br&gt;Кредитный рейтинг&lt;br&gt;Кредитный лимит&lt;/td&gt;&lt;/tr&gt;&lt;tr&gt;&lt;td align=&quot;center&quot;&gt;&lt;br&gt;&lt;/td&gt;&lt;/tr&gt;&lt;/tbody&gt;&lt;/table&gt;" style="text;html=1;whiteSpace=wrap;strokeColor=none;fillColor=none;overflow=fill;" vertex="1" parent="1">
          <mxGeometry x="1200" y="1100" width="160" height="120" as="geometry" />
        </mxCell>
        <mxCell id="a9Gmo1TxmLENQr1MWLQ0-39" value="&lt;table border=&quot;1&quot; width=&quot;100%&quot; height=&quot;100%&quot; cellpadding=&quot;4&quot; style=&quot;width:100%;height:100%;border-collapse:collapse;&quot;&gt;&lt;tbody&gt;&lt;tr&gt;&lt;th align=&quot;center&quot;&gt;Частный клиент&lt;/th&gt;&lt;/tr&gt;&lt;tr&gt;&lt;td align=&quot;center&quot;&gt;Номер кредитной карты&lt;/td&gt;&lt;/tr&gt;&lt;tr&gt;&lt;td align=&quot;center&quot;&gt;&lt;br&gt;&lt;/td&gt;&lt;/tr&gt;&lt;/tbody&gt;&lt;/table&gt;" style="text;html=1;whiteSpace=wrap;strokeColor=none;fillColor=none;overflow=fill;" vertex="1" parent="1">
          <mxGeometry x="1420" y="1105" width="160" height="90" as="geometry" />
        </mxCell>
        <mxCell id="a9Gmo1TxmLENQr1MWLQ0-40" style="rounded=0;orthogonalLoop=1;jettySize=auto;html=1;entryX=0.709;entryY=1.018;entryDx=0;entryDy=0;entryPerimeter=0;" edge="1" parent="1" source="a9Gmo1TxmLENQr1MWLQ0-39" target="a9Gmo1TxmLENQr1MWLQ0-35">
          <mxGeometry relative="1" as="geometry" />
        </mxCell>
        <mxCell id="a9Gmo1TxmLENQr1MWLQ0-41" style="rounded=0;orthogonalLoop=1;jettySize=auto;html=1;entryX=0.322;entryY=1.012;entryDx=0;entryDy=0;entryPerimeter=0;" edge="1" parent="1" source="a9Gmo1TxmLENQr1MWLQ0-38" target="a9Gmo1TxmLENQr1MWLQ0-35">
          <mxGeometry relative="1" as="geometry" />
        </mxCell>
        <mxCell id="a9Gmo1TxmLENQr1MWLQ0-42" value="&lt;table border=&quot;1&quot; width=&quot;100%&quot; height=&quot;100%&quot; cellpadding=&quot;4&quot; style=&quot;width:100%;height:100%;border-collapse:collapse;&quot;&gt;&lt;tbody&gt;&lt;tr&gt;&lt;th align=&quot;center&quot;&gt;Заявка&lt;/th&gt;&lt;/tr&gt;&lt;tr&gt;&lt;td align=&quot;center&quot;&gt;Дата оформления&lt;br&gt;Цена&lt;br&gt;Наименование&lt;br&gt;Статус выполнения&lt;br&gt;Контактные данные&lt;/td&gt;&lt;/tr&gt;&lt;tr&gt;&lt;td align=&quot;center&quot;&gt;Отправить()&lt;br&gt;Закрыть()&lt;/td&gt;&lt;/tr&gt;&lt;/tbody&gt;&lt;/table&gt;" style="text;html=1;whiteSpace=wrap;strokeColor=none;fillColor=none;overflow=fill;" vertex="1" parent="1">
          <mxGeometry x="890" y="1105" width="150" height="170" as="geometry" />
        </mxCell>
        <mxCell id="a9Gmo1TxmLENQr1MWLQ0-43" style="edgeStyle=orthogonalEdgeStyle;rounded=0;orthogonalLoop=1;jettySize=auto;html=1;entryX=0.7;entryY=0.029;entryDx=0;entryDy=0;entryPerimeter=0;endArrow=none;endFill=0;" edge="1" parent="1" source="a9Gmo1TxmLENQr1MWLQ0-36" target="a9Gmo1TxmLENQr1MWLQ0-42">
          <mxGeometry relative="1" as="geometry" />
        </mxCell>
        <mxCell id="a9Gmo1TxmLENQr1MWLQ0-44" value="&lt;table border=&quot;1&quot; width=&quot;100%&quot; height=&quot;100%&quot; cellpadding=&quot;4&quot; style=&quot;width:100%;height:100%;border-collapse:collapse;&quot;&gt;&lt;tbody&gt;&lt;tr&gt;&lt;th align=&quot;center&quot;&gt;Авто&lt;/th&gt;&lt;/tr&gt;&lt;tr&gt;&lt;td align=&quot;center&quot;&gt;ID&lt;br&gt;Наименование&lt;br&gt;Цена&lt;br&gt;Модель&lt;br&gt;Цвет&lt;/td&gt;&lt;/tr&gt;&lt;tr&gt;&lt;td align=&quot;center&quot;&gt;Просмотреть()&lt;br&gt;Изменить данные()&lt;br&gt;Удалить()&lt;/td&gt;&lt;/tr&gt;&lt;/tbody&gt;&lt;/table&gt;" style="text;html=1;whiteSpace=wrap;strokeColor=none;fillColor=none;overflow=fill;" vertex="1" parent="1">
          <mxGeometry x="1130" y="1300" width="160" height="190" as="geometry" />
        </mxCell>
        <mxCell id="a9Gmo1TxmLENQr1MWLQ0-45" style="rounded=0;orthogonalLoop=1;jettySize=auto;html=1;entryX=-0.012;entryY=0.584;entryDx=0;entryDy=0;entryPerimeter=0;" edge="1" parent="1" source="a9Gmo1TxmLENQr1MWLQ0-42" target="a9Gmo1TxmLENQr1MWLQ0-44">
          <mxGeometry relative="1" as="geometry" />
        </mxCell>
        <mxCell id="a9Gmo1TxmLENQr1MWLQ0-46" value="Обобщение" style="text;html=1;align=center;verticalAlign=middle;whiteSpace=wrap;rounded=0;rotation=0;" vertex="1" parent="1">
          <mxGeometry x="1290" y="1015" width="60" height="80" as="geometry" />
        </mxCell>
        <mxCell id="a9Gmo1TxmLENQr1MWLQ0-47" value="" style="rounded=0;whiteSpace=wrap;html=1;fillColor=none;" vertex="1" parent="1">
          <mxGeometry x="700" y="1790" width="230" height="440" as="geometry" />
        </mxCell>
        <mxCell id="a9Gmo1TxmLENQr1MWLQ0-49" value="" style="endArrow=none;html=1;rounded=0;exitX=1;exitY=0.067;exitDx=0;exitDy=0;exitPerimeter=0;entryX=0.001;entryY=0.068;entryDx=0;entryDy=0;entryPerimeter=0;" edge="1" parent="1" source="a9Gmo1TxmLENQr1MWLQ0-47" target="a9Gmo1TxmLENQr1MWLQ0-47">
          <mxGeometry width="50" height="50" relative="1" as="geometry">
            <mxPoint x="780" y="1980" as="sourcePoint" />
            <mxPoint x="830" y="1930" as="targetPoint" />
          </mxGeometry>
        </mxCell>
        <mxCell id="a9Gmo1TxmLENQr1MWLQ0-50" value="" style="rounded=0;whiteSpace=wrap;html=1;fillColor=none;" vertex="1" parent="1">
          <mxGeometry x="930" y="1790" width="230" height="440" as="geometry" />
        </mxCell>
        <mxCell id="a9Gmo1TxmLENQr1MWLQ0-51" value="" style="endArrow=none;html=1;rounded=0;exitX=1;exitY=0.067;exitDx=0;exitDy=0;exitPerimeter=0;entryX=0.001;entryY=0.068;entryDx=0;entryDy=0;entryPerimeter=0;" edge="1" parent="1" source="a9Gmo1TxmLENQr1MWLQ0-50" target="a9Gmo1TxmLENQr1MWLQ0-50">
          <mxGeometry width="50" height="50" relative="1" as="geometry">
            <mxPoint x="1010" y="1980" as="sourcePoint" />
            <mxPoint x="1060" y="1930" as="targetPoint" />
          </mxGeometry>
        </mxCell>
        <mxCell id="a9Gmo1TxmLENQr1MWLQ0-52" value="" style="rounded=0;whiteSpace=wrap;html=1;fillColor=none;" vertex="1" parent="1">
          <mxGeometry x="1160" y="1790" width="230" height="440" as="geometry" />
        </mxCell>
        <mxCell id="a9Gmo1TxmLENQr1MWLQ0-53" value="" style="endArrow=none;html=1;rounded=0;exitX=1;exitY=0.067;exitDx=0;exitDy=0;exitPerimeter=0;entryX=0.001;entryY=0.068;entryDx=0;entryDy=0;entryPerimeter=0;" edge="1" parent="1" source="a9Gmo1TxmLENQr1MWLQ0-52" target="a9Gmo1TxmLENQr1MWLQ0-52">
          <mxGeometry width="50" height="50" relative="1" as="geometry">
            <mxPoint x="1240" y="1980" as="sourcePoint" />
            <mxPoint x="1290" y="1930" as="targetPoint" />
          </mxGeometry>
        </mxCell>
        <mxCell id="a9Gmo1TxmLENQr1MWLQ0-54" value="Пользователь" style="text;html=1;align=center;verticalAlign=middle;whiteSpace=wrap;rounded=0;" vertex="1" parent="1">
          <mxGeometry x="785" y="1790" width="60" height="30" as="geometry" />
        </mxCell>
        <mxCell id="a9Gmo1TxmLENQr1MWLQ0-55" value="Веб-сервер" style="text;html=1;align=center;verticalAlign=middle;whiteSpace=wrap;rounded=0;" vertex="1" parent="1">
          <mxGeometry x="1010" y="1790" width="70" height="30" as="geometry" />
        </mxCell>
        <mxCell id="a9Gmo1TxmLENQr1MWLQ0-56" value="Сервер БД" style="text;html=1;align=center;verticalAlign=middle;whiteSpace=wrap;rounded=0;" vertex="1" parent="1">
          <mxGeometry x="1240" y="1790" width="70" height="30" as="geometry" />
        </mxCell>
        <mxCell id="a9Gmo1TxmLENQr1MWLQ0-58" value="" style="shape=waypoint;sketch=0;fillStyle=solid;size=6;pointerEvents=1;points=[];fillColor=none;resizable=0;rotatable=0;perimeter=centerPerimeter;snapToPoint=1;fontSize=13;strokeWidth=13;" vertex="1" parent="1">
          <mxGeometry x="730" y="1850" width="20" height="20" as="geometry" />
        </mxCell>
        <mxCell id="a9Gmo1TxmLENQr1MWLQ0-59" value="" style="shape=waypoint;sketch=0;fillStyle=solid;size=6;pointerEvents=1;points=[];fillColor=none;resizable=0;rotatable=0;perimeter=centerPerimeter;snapToPoint=1;fontSize=13;strokeWidth=13;" vertex="1" parent="1">
          <mxGeometry x="740" y="2190" width="20" height="20" as="geometry" />
        </mxCell>
        <mxCell id="a9Gmo1TxmLENQr1MWLQ0-60" value="" style="ellipse;shape=doubleEllipse;whiteSpace=wrap;html=1;aspect=fixed;fillColor=none;" vertex="1" parent="1">
          <mxGeometry x="732.5" y="2182.5" width="35" height="35" as="geometry" />
        </mxCell>
        <mxCell id="a9Gmo1TxmLENQr1MWLQ0-68" style="edgeStyle=orthogonalEdgeStyle;rounded=0;orthogonalLoop=1;jettySize=auto;html=1;entryX=0.5;entryY=0;entryDx=0;entryDy=0;" edge="1" parent="1" source="a9Gmo1TxmLENQr1MWLQ0-61" target="a9Gmo1TxmLENQr1MWLQ0-67">
          <mxGeometry relative="1" as="geometry" />
        </mxCell>
        <mxCell id="a9Gmo1TxmLENQr1MWLQ0-61" value="Заявка (обратный звонок)" style="rounded=1;whiteSpace=wrap;html=1;" vertex="1" parent="1">
          <mxGeometry x="780" y="1880" width="110" height="40" as="geometry" />
        </mxCell>
        <mxCell id="a9Gmo1TxmLENQr1MWLQ0-62" style="edgeStyle=orthogonalEdgeStyle;rounded=0;orthogonalLoop=1;jettySize=auto;html=1;entryX=0.537;entryY=0.06;entryDx=0;entryDy=0;entryPerimeter=0;" edge="1" parent="1" source="a9Gmo1TxmLENQr1MWLQ0-58" target="a9Gmo1TxmLENQr1MWLQ0-61">
          <mxGeometry relative="1" as="geometry" />
        </mxCell>
        <mxCell id="a9Gmo1TxmLENQr1MWLQ0-65" style="rounded=0;orthogonalLoop=1;jettySize=auto;html=1;" edge="1" parent="1" source="a9Gmo1TxmLENQr1MWLQ0-63" target="a9Gmo1TxmLENQr1MWLQ0-60">
          <mxGeometry relative="1" as="geometry" />
        </mxCell>
        <mxCell id="a9Gmo1TxmLENQr1MWLQ0-90" style="edgeStyle=orthogonalEdgeStyle;rounded=0;orthogonalLoop=1;jettySize=auto;html=1;entryX=0;entryY=0.5;entryDx=0;entryDy=0;" edge="1" parent="1" source="a9Gmo1TxmLENQr1MWLQ0-63" target="a9Gmo1TxmLENQr1MWLQ0-61">
          <mxGeometry relative="1" as="geometry">
            <Array as="points">
              <mxPoint x="730" y="1955" />
              <mxPoint x="730" y="1900" />
            </Array>
          </mxGeometry>
        </mxCell>
        <mxCell id="a9Gmo1TxmLENQr1MWLQ0-63" value="" style="rhombus;whiteSpace=wrap;html=1;" vertex="1" parent="1">
          <mxGeometry x="735" y="1940" width="30" height="30" as="geometry" />
        </mxCell>
        <mxCell id="a9Gmo1TxmLENQr1MWLQ0-82" style="rounded=0;orthogonalLoop=1;jettySize=auto;html=1;" edge="1" parent="1" source="a9Gmo1TxmLENQr1MWLQ0-66" target="a9Gmo1TxmLENQr1MWLQ0-80">
          <mxGeometry relative="1" as="geometry" />
        </mxCell>
        <mxCell id="a9Gmo1TxmLENQr1MWLQ0-66" value="Осуществляет выборку данных" style="rounded=1;whiteSpace=wrap;html=1;" vertex="1" parent="1">
          <mxGeometry x="1220" y="2040" width="110" height="40" as="geometry" />
        </mxCell>
        <mxCell id="a9Gmo1TxmLENQr1MWLQ0-69" style="edgeStyle=orthogonalEdgeStyle;rounded=0;orthogonalLoop=1;jettySize=auto;html=1;entryX=0.5;entryY=0;entryDx=0;entryDy=0;" edge="1" parent="1" source="a9Gmo1TxmLENQr1MWLQ0-67" target="a9Gmo1TxmLENQr1MWLQ0-63">
          <mxGeometry relative="1" as="geometry">
            <Array as="points">
              <mxPoint x="750" y="1930" />
            </Array>
          </mxGeometry>
        </mxCell>
        <mxCell id="a9Gmo1TxmLENQr1MWLQ0-67" value="" style="rhombus;whiteSpace=wrap;html=1;" vertex="1" parent="1">
          <mxGeometry x="1030" y="1920" width="30" height="30" as="geometry" />
        </mxCell>
        <mxCell id="a9Gmo1TxmLENQr1MWLQ0-76" style="edgeStyle=orthogonalEdgeStyle;rounded=0;orthogonalLoop=1;jettySize=auto;html=1;" edge="1" parent="1" source="a9Gmo1TxmLENQr1MWLQ0-70" target="a9Gmo1TxmLENQr1MWLQ0-75">
          <mxGeometry relative="1" as="geometry" />
        </mxCell>
        <mxCell id="a9Gmo1TxmLENQr1MWLQ0-70" value="Запрос к БД" style="rounded=1;whiteSpace=wrap;html=1;" vertex="1" parent="1">
          <mxGeometry x="1002.5" y="1970" width="75" height="20" as="geometry" />
        </mxCell>
        <mxCell id="a9Gmo1TxmLENQr1MWLQ0-72" style="edgeStyle=orthogonalEdgeStyle;rounded=0;orthogonalLoop=1;jettySize=auto;html=1;entryX=0.567;entryY=0;entryDx=0;entryDy=0;entryPerimeter=0;" edge="1" parent="1" source="a9Gmo1TxmLENQr1MWLQ0-67" target="a9Gmo1TxmLENQr1MWLQ0-70">
          <mxGeometry relative="1" as="geometry" />
        </mxCell>
        <mxCell id="a9Gmo1TxmLENQr1MWLQ0-73" value="доступен" style="text;html=1;align=center;verticalAlign=middle;whiteSpace=wrap;rounded=0;" vertex="1" parent="1">
          <mxGeometry x="1060" y="1945" width="25" height="20" as="geometry" />
        </mxCell>
        <mxCell id="a9Gmo1TxmLENQr1MWLQ0-74" value="недоступен" style="text;html=1;align=center;verticalAlign=middle;whiteSpace=wrap;rounded=0;" vertex="1" parent="1">
          <mxGeometry x="920" y="1925" width="25" height="20" as="geometry" />
        </mxCell>
        <mxCell id="a9Gmo1TxmLENQr1MWLQ0-77" style="rounded=0;orthogonalLoop=1;jettySize=auto;html=1;entryX=0;entryY=0.5;entryDx=0;entryDy=0;" edge="1" parent="1" source="a9Gmo1TxmLENQr1MWLQ0-75" target="a9Gmo1TxmLENQr1MWLQ0-66">
          <mxGeometry relative="1" as="geometry" />
        </mxCell>
        <mxCell id="a9Gmo1TxmLENQr1MWLQ0-75" value="" style="line;strokeWidth=4;html=1;perimeter=backbonePerimeter;points=[];outlineConnect=0;" vertex="1" parent="1">
          <mxGeometry x="1085" y="2010" width="57" height="10" as="geometry" />
        </mxCell>
        <mxCell id="a9Gmo1TxmLENQr1MWLQ0-81" style="rounded=0;orthogonalLoop=1;jettySize=auto;html=1;" edge="1" parent="1" source="a9Gmo1TxmLENQr1MWLQ0-78" target="a9Gmo1TxmLENQr1MWLQ0-80">
          <mxGeometry relative="1" as="geometry" />
        </mxCell>
        <mxCell id="a9Gmo1TxmLENQr1MWLQ0-78" value="Информирует клиента" style="rounded=1;whiteSpace=wrap;html=1;" vertex="1" parent="1">
          <mxGeometry x="997.5" y="2040" width="95" height="30" as="geometry" />
        </mxCell>
        <mxCell id="a9Gmo1TxmLENQr1MWLQ0-79" style="rounded=0;orthogonalLoop=1;jettySize=auto;html=1;entryX=0.801;entryY=0.084;entryDx=0;entryDy=0;entryPerimeter=0;" edge="1" parent="1" source="a9Gmo1TxmLENQr1MWLQ0-75" target="a9Gmo1TxmLENQr1MWLQ0-78">
          <mxGeometry relative="1" as="geometry" />
        </mxCell>
        <mxCell id="a9Gmo1TxmLENQr1MWLQ0-80" value="" style="line;strokeWidth=4;html=1;perimeter=backbonePerimeter;points=[];outlineConnect=0;" vertex="1" parent="1">
          <mxGeometry x="1092.5" y="2090" width="57" height="10" as="geometry" />
        </mxCell>
        <mxCell id="a9Gmo1TxmLENQr1MWLQ0-86" style="edgeStyle=orthogonalEdgeStyle;rounded=0;orthogonalLoop=1;jettySize=auto;html=1;entryX=0.5;entryY=0;entryDx=0;entryDy=0;" edge="1" parent="1" source="a9Gmo1TxmLENQr1MWLQ0-83" target="a9Gmo1TxmLENQr1MWLQ0-85">
          <mxGeometry relative="1" as="geometry" />
        </mxCell>
        <mxCell id="a9Gmo1TxmLENQr1MWLQ0-83" value="Генерирует HTML" style="rounded=1;whiteSpace=wrap;html=1;" vertex="1" parent="1">
          <mxGeometry x="1010" y="2120" width="110" height="20" as="geometry" />
        </mxCell>
        <mxCell id="a9Gmo1TxmLENQr1MWLQ0-84" style="rounded=0;orthogonalLoop=1;jettySize=auto;html=1;entryX=0.562;entryY=0.085;entryDx=0;entryDy=0;entryPerimeter=0;" edge="1" parent="1" source="a9Gmo1TxmLENQr1MWLQ0-80" target="a9Gmo1TxmLENQr1MWLQ0-83">
          <mxGeometry relative="1" as="geometry" />
        </mxCell>
        <mxCell id="a9Gmo1TxmLENQr1MWLQ0-88" style="edgeStyle=orthogonalEdgeStyle;rounded=0;orthogonalLoop=1;jettySize=auto;html=1;" edge="1" parent="1" source="a9Gmo1TxmLENQr1MWLQ0-85" target="a9Gmo1TxmLENQr1MWLQ0-87">
          <mxGeometry relative="1" as="geometry" />
        </mxCell>
        <mxCell id="a9Gmo1TxmLENQr1MWLQ0-85" value="Передает данные" style="rounded=1;whiteSpace=wrap;html=1;" vertex="1" parent="1">
          <mxGeometry x="1010" y="2162.5" width="110" height="20" as="geometry" />
        </mxCell>
        <mxCell id="a9Gmo1TxmLENQr1MWLQ0-89" style="edgeStyle=orthogonalEdgeStyle;rounded=0;orthogonalLoop=1;jettySize=auto;html=1;entryX=1;entryY=0.5;entryDx=0;entryDy=0;" edge="1" parent="1" source="a9Gmo1TxmLENQr1MWLQ0-87" target="a9Gmo1TxmLENQr1MWLQ0-60">
          <mxGeometry relative="1" as="geometry" />
        </mxCell>
        <mxCell id="a9Gmo1TxmLENQr1MWLQ0-87" value="Получает данные" style="rounded=1;whiteSpace=wrap;html=1;" vertex="1" parent="1">
          <mxGeometry x="810" y="2162.5" width="110" height="20" as="geometry" />
        </mxCell>
        <mxCell id="a9Gmo1TxmLENQr1MWLQ0-91" value="повторить" style="text;html=1;align=center;verticalAlign=middle;whiteSpace=wrap;rounded=0;" vertex="1" parent="1">
          <mxGeometry x="697" y="1920" width="43" height="30" as="geometry" />
        </mxCell>
        <mxCell id="a9Gmo1TxmLENQr1MWLQ0-92" value="прервать" style="text;html=1;align=center;verticalAlign=middle;whiteSpace=wrap;rounded=0;" vertex="1" parent="1">
          <mxGeometry x="690" y="1895" width="50" height="30" as="geometry" />
        </mxCell>
        <mxCell id="a9Gmo1TxmLENQr1MWLQ0-95" style="edgeStyle=orthogonalEdgeStyle;rounded=0;orthogonalLoop=1;jettySize=auto;html=1;" edge="1" parent="1" source="a9Gmo1TxmLENQr1MWLQ0-93" target="a9Gmo1TxmLENQr1MWLQ0-94">
          <mxGeometry relative="1" as="geometry" />
        </mxCell>
        <mxCell id="a9Gmo1TxmLENQr1MWLQ0-93" value="" style="shape=waypoint;sketch=0;fillStyle=solid;size=6;pointerEvents=1;points=[];fillColor=none;resizable=0;rotatable=0;perimeter=centerPerimeter;snapToPoint=1;fontSize=13;strokeWidth=13;" vertex="1" parent="1">
          <mxGeometry x="80" y="1830" width="20" height="20" as="geometry" />
        </mxCell>
        <mxCell id="a9Gmo1TxmLENQr1MWLQ0-100" style="edgeStyle=orthogonalEdgeStyle;rounded=0;orthogonalLoop=1;jettySize=auto;html=1;entryX=0;entryY=0.5;entryDx=0;entryDy=0;" edge="1" parent="1" source="a9Gmo1TxmLENQr1MWLQ0-94" target="a9Gmo1TxmLENQr1MWLQ0-97">
          <mxGeometry relative="1" as="geometry" />
        </mxCell>
        <mxCell id="a9Gmo1TxmLENQr1MWLQ0-94" value="Инициализация&lt;div&gt;------------------------------&lt;/div&gt;&lt;div&gt;entry / Сохранить дату заявки&lt;/div&gt;&lt;div&gt;do/ Внести информацию о клиенте&lt;/div&gt;" style="rounded=1;whiteSpace=wrap;html=1;" vertex="1" parent="1">
          <mxGeometry x="-12.5" y="1912.5" width="205" height="85" as="geometry" />
        </mxCell>
        <mxCell id="a9Gmo1TxmLENQr1MWLQ0-96" value="Заявка создана" style="text;html=1;align=center;verticalAlign=middle;whiteSpace=wrap;rounded=0;" vertex="1" parent="1">
          <mxGeometry x="31.25" y="1865" width="117.5" height="30" as="geometry" />
        </mxCell>
        <mxCell id="a9Gmo1TxmLENQr1MWLQ0-102" style="rounded=0;orthogonalLoop=1;jettySize=auto;html=1;edgeStyle=orthogonalEdgeStyle;curved=1;" edge="1" parent="1" source="a9Gmo1TxmLENQr1MWLQ0-97">
          <mxGeometry relative="1" as="geometry">
            <mxPoint x="470" y="1910" as="targetPoint" />
          </mxGeometry>
        </mxCell>
        <mxCell id="a9Gmo1TxmLENQr1MWLQ0-104" style="edgeStyle=orthogonalEdgeStyle;rounded=0;orthogonalLoop=1;jettySize=auto;html=1;" edge="1" parent="1" source="a9Gmo1TxmLENQr1MWLQ0-97" target="a9Gmo1TxmLENQr1MWLQ0-99">
          <mxGeometry relative="1" as="geometry" />
        </mxCell>
        <mxCell id="a9Gmo1TxmLENQr1MWLQ0-97" value="Открыт&lt;div&gt;------------------------------&lt;/div&gt;&lt;div&gt;do / Создать&lt;/div&gt;&lt;div&gt;exit / Отменить&lt;/div&gt;" style="rounded=1;whiteSpace=wrap;html=1;" vertex="1" parent="1">
          <mxGeometry x="337.5" y="1912.5" width="182.5" height="67.5" as="geometry" />
        </mxCell>
        <mxCell id="a9Gmo1TxmLENQr1MWLQ0-98" value="&lt;div&gt;Отменен&lt;/div&gt;&lt;div&gt;------------------------------&lt;/div&gt;&lt;div&gt;exit / Сохранить дату отмены&lt;/div&gt;" style="rounded=1;whiteSpace=wrap;html=1;" vertex="1" parent="1">
          <mxGeometry x="50" y="2090" width="168.75" height="50" as="geometry" />
        </mxCell>
        <mxCell id="a9Gmo1TxmLENQr1MWLQ0-112" style="edgeStyle=orthogonalEdgeStyle;rounded=0;orthogonalLoop=1;jettySize=auto;html=1;entryX=1;entryY=0.5;entryDx=0;entryDy=0;" edge="1" parent="1" source="a9Gmo1TxmLENQr1MWLQ0-99" target="a9Gmo1TxmLENQr1MWLQ0-110">
          <mxGeometry relative="1" as="geometry">
            <Array as="points">
              <mxPoint x="440" y="2227" />
            </Array>
          </mxGeometry>
        </mxCell>
        <mxCell id="a9Gmo1TxmLENQr1MWLQ0-99" value="Закрыт&lt;div&gt;------------------------------&lt;/div&gt;&lt;div&gt;do/ Вывести сообщение одобрения&lt;/div&gt;" style="rounded=1;whiteSpace=wrap;html=1;" vertex="1" parent="1">
          <mxGeometry x="337.5" y="2090" width="182.5" height="70" as="geometry" />
        </mxCell>
        <mxCell id="a9Gmo1TxmLENQr1MWLQ0-101" value="Инициализация завершена" style="text;html=1;align=center;verticalAlign=middle;whiteSpace=wrap;rounded=0;" vertex="1" parent="1">
          <mxGeometry x="210" y="1915" width="117.5" height="30" as="geometry" />
        </mxCell>
        <mxCell id="a9Gmo1TxmLENQr1MWLQ0-103" value="Добавление пункта заявки" style="text;html=1;align=center;verticalAlign=middle;whiteSpace=wrap;rounded=0;" vertex="1" parent="1">
          <mxGeometry x="391.25" y="1860" width="117.5" height="30" as="geometry" />
        </mxCell>
        <mxCell id="a9Gmo1TxmLENQr1MWLQ0-105" value="Заполнены все поля заявки" style="text;html=1;align=center;verticalAlign=middle;whiteSpace=wrap;rounded=0;" vertex="1" parent="1">
          <mxGeometry x="440" y="2030" width="117.5" height="30" as="geometry" />
        </mxCell>
        <mxCell id="a9Gmo1TxmLENQr1MWLQ0-106" style="rounded=0;orthogonalLoop=1;jettySize=auto;html=1;entryX=0.992;entryY=0.172;entryDx=0;entryDy=0;entryPerimeter=0;" edge="1" parent="1" source="a9Gmo1TxmLENQr1MWLQ0-97" target="a9Gmo1TxmLENQr1MWLQ0-98">
          <mxGeometry relative="1" as="geometry" />
        </mxCell>
        <mxCell id="a9Gmo1TxmLENQr1MWLQ0-107" value="Заявка отклонена" style="text;html=1;align=center;verticalAlign=middle;whiteSpace=wrap;rounded=0;" vertex="1" parent="1">
          <mxGeometry x="242.5" y="2030" width="117.5" height="30" as="geometry" />
        </mxCell>
        <mxCell id="a9Gmo1TxmLENQr1MWLQ0-110" value="" style="ellipse;shape=doubleEllipse;whiteSpace=wrap;html=1;aspect=fixed;fillColor=none;" vertex="1" parent="1">
          <mxGeometry x="262.5" y="2210" width="35" height="35" as="geometry" />
        </mxCell>
        <mxCell id="a9Gmo1TxmLENQr1MWLQ0-111" value="" style="shape=waypoint;sketch=0;fillStyle=solid;size=6;pointerEvents=1;points=[];fillColor=none;resizable=0;rotatable=0;perimeter=centerPerimeter;snapToPoint=1;fontSize=13;strokeWidth=13;" vertex="1" parent="1">
          <mxGeometry x="270" y="2217.5" width="20" height="20" as="geometry" />
        </mxCell>
        <mxCell id="a9Gmo1TxmLENQr1MWLQ0-114" style="edgeStyle=orthogonalEdgeStyle;rounded=0;orthogonalLoop=1;jettySize=auto;html=1;entryX=-0.071;entryY=0.571;entryDx=0;entryDy=0;entryPerimeter=0;" edge="1" parent="1" source="a9Gmo1TxmLENQr1MWLQ0-98" target="a9Gmo1TxmLENQr1MWLQ0-110">
          <mxGeometry relative="1" as="geometry">
            <Array as="points">
              <mxPoint x="130" y="2230" />
            </Array>
          </mxGeometry>
        </mxCell>
        <mxCell id="a9Gmo1TxmLENQr1MWLQ0-115" value="Заявка удалена" style="text;html=1;align=center;verticalAlign=middle;whiteSpace=wrap;rounded=0;" vertex="1" parent="1">
          <mxGeometry x="140" y="2200" width="117.5" height="30" as="geometry" />
        </mxCell>
        <mxCell id="a9Gmo1TxmLENQr1MWLQ0-117" value="Сообщение выведено" style="text;html=1;align=center;verticalAlign=middle;whiteSpace=wrap;rounded=0;" vertex="1" parent="1">
          <mxGeometry x="303.75" y="2200" width="132.5" height="30" as="geometry" />
        </mxCell>
      </root>
    </mxGraphModel>
  </diagram>
</mxfile>
